<?xml version="1.0" encoding="UTF-8" standalone="no"?>
<!-- Created with Inkscape (http://www.inkscape.org/) -->

<svg
   xmlns:dc="http://purl.org/dc/elements/1.1/"
   xmlns:cc="http://creativecommons.org/ns#"
   xmlns:rdf="http://www.w3.org/1999/02/22-rdf-syntax-ns#"
   xmlns:svg="http://www.w3.org/2000/svg"
   xmlns="http://www.w3.org/2000/svg"
   xmlns:sodipodi="http://sodipodi.sourceforge.net/DTD/sodipodi-0.dtd"
   xmlns:inkscape="http://www.inkscape.org/namespaces/inkscape"
   id="svg3039"
   version="1.1"
   inkscape:version="0.48.4 r9939"
   width="5696.0625"
   height="4329.25"
   sodipodi:docname="Layout Borne final.svg">
  <metadata
     id="metadata3045">
    <rdf:RDF>
      <cc:Work
         rdf:about="">
        <dc:format>image/svg+xml</dc:format>
        <dc:type
           rdf:resource="http://purl.org/dc/dcmitype/StillImage" />
        <dc:title />
      </cc:Work>
    </rdf:RDF>
  </metadata>
  <defs
     id="defs3043">
    <marker
       inkscape:stockid="Arrow1Lend"
       orient="auto"
       refY="0.0"
       refX="0.0"
       id="Arrow1Lend"
       style="overflow:visible;">
      <path
         id="path3780"
         d="M 0.0,0.0 L 5.0,-5.0 L -12.5,0.0 L 5.0,5.0 L 0.0,0.0 z "
         style="fill-rule:evenodd;stroke:#000000;stroke-width:1.0pt;"
         transform="scale(0.8) rotate(180) translate(12.5,0)" />
    </marker>
    <marker
       inkscape:stockid="Arrow1Lstart"
       orient="auto"
       refY="0.0"
       refX="0.0"
       id="Arrow1Lstart"
       style="overflow:visible">
      <path
         id="path3777"
         d="M 0.0,0.0 L 5.0,-5.0 L -12.5,0.0 L 5.0,5.0 L 0.0,0.0 z "
         style="fill-rule:evenodd;stroke:#000000;stroke-width:1.0pt"
         transform="scale(0.8) translate(12.5,0)" />
    </marker>
    <marker
       inkscape:stockid="Arrow1Lstart"
       orient="auto"
       refY="0"
       refX="0"
       id="Arrow1Lstart-7"
       style="overflow:visible">
      <path
         inkscape:connector-curvature="0"
         id="path3777-9"
         d="M 0,0 5,-5 -12.5,0 5,5 0,0 z"
         style="fill-rule:evenodd;stroke:#000000;stroke-width:1pt"
         transform="matrix(0.8,0,0,0.8,10,0)" />
    </marker>
    <marker
       inkscape:stockid="Arrow1Lend"
       orient="auto"
       refY="0"
       refX="0"
       id="Arrow1Lend-6"
       style="overflow:visible">
      <path
         inkscape:connector-curvature="0"
         id="path3780-6"
         d="M 0,0 5,-5 -12.5,0 5,5 0,0 z"
         style="fill-rule:evenodd;stroke:#000000;stroke-width:1pt"
         transform="matrix(-0.8,0,0,-0.8,-10,0)" />
    </marker>
    <marker
       inkscape:stockid="Arrow1Lend"
       orient="auto"
       refY="0"
       refX="0"
       id="marker4973"
       style="overflow:visible">
      <path
         inkscape:connector-curvature="0"
         id="path4975"
         d="M 0,0 5,-5 -12.5,0 5,5 0,0 z"
         style="fill-rule:evenodd;stroke:#000000;stroke-width:1pt"
         transform="matrix(-0.8,0,0,-0.8,-10,0)" />
    </marker>
  </defs>
  <sodipodi:namedview
     pagecolor="#ffffff"
     bordercolor="#666666"
     borderopacity="1"
     objecttolerance="10"
     gridtolerance="10"
     guidetolerance="10"
     inkscape:pageopacity="0"
     inkscape:pageshadow="2"
     inkscape:window-width="1366"
     inkscape:window-height="692"
     id="namedview3041"
     showgrid="false"
     inkscape:zoom="0.49251218"
     inkscape:cx="771.4635"
     inkscape:cy="3523.6367"
     inkscape:window-x="0"
     inkscape:window-y="24"
     inkscape:window-maximized="1"
     inkscape:current-layer="svg3039"
     fit-margin-top="0"
     fit-margin-left="0"
     fit-margin-right="0"
     fit-margin-bottom="0"
     units="cm" />
  <path
     style="fill:none;stroke:#000000;stroke-width:22.84212875px;stroke-linecap:butt;stroke-linejoin:miter;stroke-opacity:1"
     d="m 177.08845,201.775 0,1372.1 1622.96865,0 0,-1372.1 -1622.96865,0 z m 209.125,157.94 1204.71865,0 0,967.31 -1204.71865,0 0,-967.31 z"
     id="rect3063"
     inkscape:connector-curvature="0" />
  <rect
     style="fill:none;stroke:#000000;stroke-width:23.14764404px;stroke-linecap:butt;stroke-linejoin:miter;stroke-opacity:1"
     id="rect3065"
     width="1640.3843"
     height="1558.365"
     x="1978.5188"
     y="179.65625" />
  <rect
     style="fill:none;stroke:#000000;stroke-width:23.14764404px;stroke-linecap:butt;stroke-linejoin:miter;stroke-opacity:1"
     id="rect3067"
     width="1640.3843"
     height="840.6969"
     x="183.91516"
     y="1741.625" />
  <rect
     style="fill:none;stroke:#000000;stroke-width:23.14764404px;stroke-linecap:butt;stroke-linejoin:miter;stroke-opacity:1"
     id="rect3069"
     width="1640.3843"
     height="225.55286"
     x="167.29846"
     y="2755.25" />
  <rect
     style="fill:none;stroke:#000000;stroke-width:23.14764404px;stroke-linecap:butt;stroke-linejoin:miter;stroke-opacity:1"
     id="rect3067-3"
     width="1640.3843"
     height="840.6969"
     x="161.32471"
     y="3132.5" />
  <rect
     style="fill:none;stroke:#000000;stroke-width:23.14764404px;stroke-linecap:butt;stroke-linejoin:miter;stroke-opacity:1"
     id="rect3089"
     width="1640.3843"
     height="1619.8795"
     x="1978.5188"
     y="1874.5625" />
  <rect
     style="fill:none;stroke:#000000;stroke-width:23.14764404px;stroke-linecap:butt;stroke-linejoin:miter;stroke-opacity:1"
     id="rect3091"
     width="1640.3843"
     height="594.63928"
     x="1961.9019"
     y="3635.9375" />
  <path
     style="fill:none;stroke:#000000;stroke-width:23.14764404;stroke-linecap:butt;stroke-linejoin:miter;stroke-miterlimit:4;stroke-opacity:1;stroke-dasharray:none"
     d="m 3754.0596,171.725 c 0,0 -1.7871,1662.85 0,1725.43 1.787,62.58 66.0034,66.01 66.0034,66.01 0,0 547.1548,105.54 591.8541,105.54 44.6993,0 55.418,-53.55 55.418,-53.55 0,0 182.4173,-1189.1 223.5406,-1267.77 41.1239,-78.67 127.0259,-107.1 127.0259,-107.1 0,0 582.7896,-139.73 616.7617,-152.24 33.9714,-12.52 33.9356,-46.39 33.9356,-46.39 l 0,-216.38 c 0,-48.28 -57.2858,-53.55 -57.2858,-53.55 l -1657.2536,0 z"
     id="path3120"
     inkscape:connector-curvature="0" />
  <path
     style="fill:none;stroke:#000000;stroke-width:23.14764404;stroke-linecap:butt;stroke-linejoin:miter;stroke-miterlimit:4;stroke-opacity:1;stroke-dasharray:none"
     d="m 5472.1715,2944.775 c 0,0 1.787,-1662.86 0,-1725.44 -1.787,-62.58 -66.0035,-66 -66.0035,-66 0,0 -547.1548,-105.54 -591.8541,-105.54 -44.6993,0 -55.418,53.55 -55.418,53.55 0,0 -182.4173,1189.09 -223.5406,1267.77 -41.1239,78.67 -127.0258,107.1 -127.0258,107.1 0,0 -582.7896,139.72 -616.7617,152.24 -33.9714,12.52 -33.9356,46.39 -33.9356,46.39 l 0,216.38 c 0,48.27 57.2858,53.55 57.2858,53.55 l 1657.2535,0 z"
     id="path3120-3"
     inkscape:connector-curvature="0" />
  <rect
     style="fill:none;stroke:#ff0000;stroke-width:13.74181461000000049;stroke-miterlimit:4;stroke-opacity:1;stroke-dasharray:none"
     id="rect3887"
     width="5682.3164"
     height="4315.5166"
     x="6.8622437"
     y="6.875" />
  <path
     style="fill:#0000ff;fill-opacity:1;stroke:#0025ff;stroke-width:13.43;stroke-linecap:butt;stroke-linejoin:miter;stroke-miterlimit:4;stroke-opacity:1;stroke-dasharray:none;marker-start:url(#Arrow1Lstart);marker-mid:url(#Arrow1Lend);marker-end:url(#Arrow1Lend)"
     d="m 523.84491,1292.2466 c 0,-18.9364 0,-886.22717 0,-886.22717"
     id="path3771"
     inkscape:connector-curvature="0" />
  <text
     xml:space="preserve"
     style="font-size:125.15234375px;font-style:normal;font-weight:normal;line-height:125%;letter-spacing:0px;word-spacing:0px;fill:#000000;fill-opacity:1;stroke:none;font-family:Sans"
     x="562.2771"
     y="831.11578"
     id="text4955"
     sodipodi:linespacing="125%"><tspan
       sodipodi:role="line"
       id="tspan4957"
       x="562.2771"
       y="831.11578"
       style="fill:#0000ff">27,3cm</tspan></text>
  <path
     style="fill:#0000ff;fill-opacity:1;stroke:#0025ff;stroke-width:14.96397114;stroke-linecap:butt;stroke-linejoin:miter;stroke-miterlimit:4;stroke-opacity:1;stroke-dasharray:none;marker-start:url(#Arrow1Lstart);marker-mid:url(#Arrow1Lend);marker-end:url(#Arrow1Lend)"
     d="m 418.54575,1214.6062 c 23.8495,0 1116.15965,0 1116.15965,0"
     id="path3771-3"
     inkscape:connector-curvature="0" />
  <text
     xml:space="preserve"
     style="font-size:125.15234375px;font-style:normal;font-weight:normal;line-height:125%;letter-spacing:0px;word-spacing:0px;fill:#000000;fill-opacity:1;stroke:none;font-family:Sans"
     x="789.18372"
     y="1164.4396"
     id="text4955-0"
     sodipodi:linespacing="125%"><tspan
       sodipodi:role="line"
       id="tspan4957-4"
       x="789.18372"
       y="1164.4396"
       style="fill:#0000ff">34,3cm</tspan></text>
</svg>
