<?xml version="1.0" encoding="UTF-8" standalone="no"?>
<!-- Created with Inkscape (http://www.inkscape.org/) -->

<svg
   xmlns:dc="http://purl.org/dc/elements/1.1/"
   xmlns:cc="http://creativecommons.org/ns#"
   xmlns:rdf="http://www.w3.org/1999/02/22-rdf-syntax-ns#"
   xmlns:svg="http://www.w3.org/2000/svg"
   xmlns="http://www.w3.org/2000/svg"
   xmlns:sodipodi="http://sodipodi.sourceforge.net/DTD/sodipodi-0.dtd"
   xmlns:inkscape="http://www.inkscape.org/namespaces/inkscape"
   id="svg3039"
   version="1.1"
   inkscape:version="0.48.4 r9939"
   width="1641.375"
   height="841.6875"
   sodipodi:docname="Layout Borne final.svg">
  <metadata
     id="metadata3045">
    <rdf:RDF>
      <cc:Work
         rdf:about="">
        <dc:format>image/svg+xml</dc:format>
        <dc:type
           rdf:resource="http://purl.org/dc/dcmitype/StillImage" />
        <dc:title></dc:title>
      </cc:Work>
    </rdf:RDF>
  </metadata>
  <defs
     id="defs3043">
    <marker
       inkscape:stockid="Arrow1Lend"
       orient="auto"
       refY="0"
       refX="0"
       id="Arrow1Lend"
       style="overflow:visible">
      <path
         id="path3780"
         d="M 0,0 5,-5 -12.5,0 5,5 0,0 z"
         style="fill-rule:evenodd;stroke:#000000;stroke-width:1pt"
         transform="matrix(-0.8,0,0,-0.8,-10,0)"
         inkscape:connector-curvature="0" />
    </marker>
    <marker
       inkscape:stockid="Arrow1Lstart"
       orient="auto"
       refY="0"
       refX="0"
       id="Arrow1Lstart"
       style="overflow:visible">
      <path
         id="path3777"
         d="M 0,0 5,-5 -12.5,0 5,5 0,0 z"
         style="fill-rule:evenodd;stroke:#000000;stroke-width:1pt"
         transform="matrix(0.8,0,0,0.8,10,0)"
         inkscape:connector-curvature="0" />
    </marker>
    <marker
       inkscape:stockid="Arrow1Lstart"
       orient="auto"
       refY="0"
       refX="0"
       id="Arrow1Lstart-7"
       style="overflow:visible">
      <path
         inkscape:connector-curvature="0"
         id="path3777-9"
         d="M 0,0 5,-5 -12.5,0 5,5 0,0 z"
         style="fill-rule:evenodd;stroke:#000000;stroke-width:1pt"
         transform="matrix(0.8,0,0,0.8,10,0)" />
    </marker>
    <marker
       inkscape:stockid="Arrow1Lend"
       orient="auto"
       refY="0"
       refX="0"
       id="Arrow1Lend-6"
       style="overflow:visible">
      <path
         inkscape:connector-curvature="0"
         id="path3780-6"
         d="M 0,0 5,-5 -12.5,0 5,5 0,0 z"
         style="fill-rule:evenodd;stroke:#000000;stroke-width:1pt"
         transform="matrix(-0.8,0,0,-0.8,-10,0)" />
    </marker>
    <marker
       inkscape:stockid="Arrow1Lend"
       orient="auto"
       refY="0"
       refX="0"
       id="marker4973"
       style="overflow:visible">
      <path
         inkscape:connector-curvature="0"
         id="path4975"
         d="M 0,0 5,-5 -12.5,0 5,5 0,0 z"
         style="fill-rule:evenodd;stroke:#000000;stroke-width:1pt"
         transform="matrix(-0.8,0,0,-0.8,-10,0)" />
    </marker>
  </defs>
  <sodipodi:namedview
     pagecolor="#ffffff"
     bordercolor="#666666"
     borderopacity="1"
     objecttolerance="10"
     gridtolerance="10"
     guidetolerance="10"
     inkscape:pageopacity="0"
     inkscape:pageshadow="2"
     inkscape:window-width="1063"
     inkscape:window-height="830"
     id="namedview3041"
     showgrid="false"
     inkscape:zoom="0.24625609"
     inkscape:cx="611.18214"
     inkscape:cy="416.42262"
     inkscape:window-x="1425"
     inkscape:window-y="158"
     inkscape:window-maximized="0"
     inkscape:current-layer="svg3039"
     fit-margin-top="0"
     fit-margin-left="0"
     fit-margin-right="0"
     fit-margin-bottom="0"
     units="cm" />
  <rect
     style="fill:none;stroke:#000000;stroke-width:1;stroke-linecap:butt;stroke-linejoin:miter;stroke-miterlimit:4;stroke-opacity:1;stroke-dasharray:none"
     id="rect3067"
     width="1640.3843"
     height="840.6969"
     x="0.49536133"
     y="0.49731445" />
  <path
     sodipodi:type="arc"
     style="fill:none;stroke:#000000;stroke-opacity:1"
     id="path3818"
     sodipodi:cx="173.4937"
     sodipodi:cy="906.52142"
     sodipodi:rx="23.486046"
     sodipodi:ry="23.486046"
     d="m 196.97974,906.52142 a 23.486046,23.486046 0 1 1 -46.97209,0 23.486046,23.486046 0 1 1 46.97209,0 z"
     transform="matrix(2.5779744,0,0,2.5779744,592.52055,-1858.6435)" />
  <path
     sodipodi:type="arc"
     style="fill:none;stroke:#000000;stroke-opacity:1"
     id="path3820"
     sodipodi:cx="175.3246"
     sodipodi:cy="977.16895"
     sodipodi:rx="23.170374"
     sodipodi:ry="23.170374"
     d="m 198.49497,977.16895 a 23.170374,23.170374 0 1 1 -46.34074,0 23.170374,23.170374 0 1 1 46.34074,0 z"
     transform="matrix(2.5779744,0,0,2.5779744,592.52055,-1858.6435)" />
  <path
     sodipodi:type="arc"
     style="fill:none;stroke:#000000;stroke-opacity:1"
     id="path3822"
     sodipodi:cx="243.76244"
     sodipodi:cy="958.22858"
     sodipodi:rx="23.044106"
     sodipodi:ry="23.044106"
     d="m 266.80654,958.22858 a 23.044106,23.044106 0 1 1 -46.08821,0 23.044106,23.044106 0 1 1 46.08821,0 z"
     transform="matrix(2.5779744,0,0,2.5779744,572.21645,-1858.6435)" />
  <path
     transform="matrix(2.5779744,0,0,2.5779744,730.07275,-1859.7828)"
     sodipodi:type="arc"
     style="fill:none;stroke:#000000;stroke-opacity:1"
     id="path3822-4"
     sodipodi:cx="243.76244"
     sodipodi:cy="958.22858"
     sodipodi:rx="23.044106"
     sodipodi:ry="23.044106"
     d="m 266.80654,958.22858 a 23.044106,23.044106 0 1 1 -46.08821,0 23.044106,23.044106 0 1 1 46.08821,0 z" />
  <path
     transform="matrix(2.5779744,0,0,2.5779744,568.79855,-2043.7007)"
     sodipodi:type="arc"
     style="fill:none;stroke:#000000;stroke-opacity:1"
     id="path3822-0"
     sodipodi:cx="243.76244"
     sodipodi:cy="958.22858"
     sodipodi:rx="23.044106"
     sodipodi:ry="23.044106"
     d="m 266.80654,958.22858 a 23.044106,23.044106 0 1 1 -46.08821,0 23.044106,23.044106 0 1 1 46.08821,0 z" />
  <path
     transform="matrix(2.5779744,0,0,2.5779744,729.09625,-2051.5131)"
     sodipodi:type="arc"
     style="fill:none;stroke:#000000;stroke-opacity:1"
     id="path3822-9"
     sodipodi:cx="243.76244"
     sodipodi:cy="958.22858"
     sodipodi:rx="23.044106"
     sodipodi:ry="23.044106"
     d="m 266.80654,958.22858 a 23.044106,23.044106 0 1 1 -46.08821,0 23.044106,23.044106 0 1 1 46.08821,0 z" />
  <path
     transform="matrix(2.5779744,0,0,2.5779744,159.94735,-2227.2931)"
     sodipodi:type="arc"
     style="fill:none;stroke:#000000;stroke-opacity:1"
     id="path3822-48"
     sodipodi:cx="243.76244"
     sodipodi:cy="958.22858"
     sodipodi:rx="23.044106"
     sodipodi:ry="23.044106"
     d="m 266.80654,958.22858 a 23.044106,23.044106 0 1 1 -46.08821,0 23.044106,23.044106 0 1 1 46.08821,0 z" />
  <path
     transform="matrix(2.0664161,0,0,2.0664161,422.34035,-1740.033)"
     sodipodi:type="arc"
     style="fill:none;stroke:#000000;stroke-opacity:1"
     id="path3822-8"
     sodipodi:cx="243.76244"
     sodipodi:cy="958.22858"
     sodipodi:rx="23.044106"
     sodipodi:ry="23.044106"
     d="m 266.80654,958.22858 a 23.044106,23.044106 0 1 1 -46.08821,0 23.044106,23.044106 0 1 1 46.08821,0 z" />
  <path
     transform="matrix(2.0664161,0,0,2.0664161,149.88145,-1741.0096)"
     sodipodi:type="arc"
     style="fill:none;stroke:#000000;stroke-opacity:1"
     id="path3822-8-4"
     sodipodi:cx="243.76244"
     sodipodi:cy="958.22858"
     sodipodi:rx="23.044106"
     sodipodi:ry="23.044106"
     d="m 266.80654,958.22858 a 23.044106,23.044106 0 1 1 -46.08821,0 23.044106,23.044106 0 1 1 46.08821,0 z" />
  <path
     transform="matrix(1.5921047,0,0,1.5921047,-9.40715,-960.82428)"
     sodipodi:type="arc"
     style="fill:none;stroke:#000000;stroke-opacity:1"
     id="path3822-8-4-7"
     sodipodi:cx="243.76244"
     sodipodi:cy="958.22858"
     sodipodi:rx="23.044106"
     sodipodi:ry="23.044106"
     d="m 266.80654,958.22858 a 23.044106,23.044106 0 1 1 -46.08821,0 23.044106,23.044106 0 1 1 46.08821,0 z" />
</svg>
