<?xml version="1.0" encoding="UTF-8" standalone="no"?>
<!-- Created with Inkscape (http://www.inkscape.org/) -->

<svg
   xmlns:dc="http://purl.org/dc/elements/1.1/"
   xmlns:cc="http://creativecommons.org/ns#"
   xmlns:rdf="http://www.w3.org/1999/02/22-rdf-syntax-ns#"
   xmlns:svg="http://www.w3.org/2000/svg"
   xmlns="http://www.w3.org/2000/svg"
   xmlns:sodipodi="http://sodipodi.sourceforge.net/DTD/sodipodi-0.dtd"
   xmlns:inkscape="http://www.inkscape.org/namespaces/inkscape"
   id="svg3039"
   version="1.1"
   inkscape:version="0.48.4 r9939"
   width="1641.375"
   height="841.6875"
   sodipodi:docname="panel_v2.dxf">
  <metadata
     id="metadata3045">
    <rdf:RDF>
      <cc:Work
         rdf:about="">
        <dc:format>image/svg+xml</dc:format>
        <dc:type
           rdf:resource="http://purl.org/dc/dcmitype/StillImage" />
        <dc:title></dc:title>
      </cc:Work>
    </rdf:RDF>
  </metadata>
  <defs
     id="defs3043">
    <marker
       inkscape:stockid="Arrow1Lend"
       orient="auto"
       refY="0"
       refX="0"
       id="Arrow1Lend"
       style="overflow:visible">
      <path
         id="path3780"
         d="M 0,0 5,-5 -12.5,0 5,5 0,0 z"
         style="fill-rule:evenodd;stroke:#000000;stroke-width:1pt"
         transform="matrix(-0.8,0,0,-0.8,-10,0)"
         inkscape:connector-curvature="0" />
    </marker>
    <marker
       inkscape:stockid="Arrow1Lstart"
       orient="auto"
       refY="0"
       refX="0"
       id="Arrow1Lstart"
       style="overflow:visible">
      <path
         id="path3777"
         d="M 0,0 5,-5 -12.5,0 5,5 0,0 z"
         style="fill-rule:evenodd;stroke:#000000;stroke-width:1pt"
         transform="matrix(0.8,0,0,0.8,10,0)"
         inkscape:connector-curvature="0" />
    </marker>
    <marker
       inkscape:stockid="Arrow1Lstart"
       orient="auto"
       refY="0"
       refX="0"
       id="Arrow1Lstart-7"
       style="overflow:visible">
      <path
         inkscape:connector-curvature="0"
         id="path3777-9"
         d="M 0,0 5,-5 -12.5,0 5,5 0,0 z"
         style="fill-rule:evenodd;stroke:#000000;stroke-width:1pt"
         transform="matrix(0.8,0,0,0.8,10,0)" />
    </marker>
    <marker
       inkscape:stockid="Arrow1Lend"
       orient="auto"
       refY="0"
       refX="0"
       id="Arrow1Lend-6"
       style="overflow:visible">
      <path
         inkscape:connector-curvature="0"
         id="path3780-6"
         d="M 0,0 5,-5 -12.5,0 5,5 0,0 z"
         style="fill-rule:evenodd;stroke:#000000;stroke-width:1pt"
         transform="matrix(-0.8,0,0,-0.8,-10,0)" />
    </marker>
    <marker
       inkscape:stockid="Arrow1Lend"
       orient="auto"
       refY="0"
       refX="0"
       id="marker4973"
       style="overflow:visible">
      <path
         inkscape:connector-curvature="0"
         id="path4975"
         d="M 0,0 5,-5 -12.5,0 5,5 0,0 z"
         style="fill-rule:evenodd;stroke:#000000;stroke-width:1pt"
         transform="matrix(-0.8,0,0,-0.8,-10,0)" />
    </marker>
  </defs>
  <sodipodi:namedview
     pagecolor="#ffffff"
     bordercolor="#666666"
     borderopacity="1"
     objecttolerance="10"
     gridtolerance="10"
     guidetolerance="10"
     inkscape:pageopacity="0"
     inkscape:pageshadow="2"
     inkscape:window-width="1366"
     inkscape:window-height="692"
     id="namedview3041"
     showgrid="false"
     inkscape:zoom="0.24625609"
     inkscape:cx="1004.6169"
     inkscape:cy="319.29393"
     inkscape:window-x="0"
     inkscape:window-y="24"
     inkscape:window-maximized="1"
     inkscape:current-layer="svg3039"
     fit-margin-top="0"
     fit-margin-left="0"
     fit-margin-right="0"
     fit-margin-bottom="0"
     units="cm" />
  <rect
     style="fill:none;stroke:#000000;stroke-width:2.78858268;stroke-linecap:butt;stroke-linejoin:miter;stroke-miterlimit:4;stroke-opacity:1;stroke-dasharray:none"
     id="rect3067"
     width="1640.3843"
     height="840.6969"
     x="0.49536133"
     y="0.49731445" />
  <g
     id="g3040"
     transform="translate(-54.724344,28)"
     style="stroke:#000000;stroke-width:2.78858256;stroke-miterlimit:4;stroke-opacity:1;stroke-dasharray:none">
    <path
       d="m 266.80654,958.22858 c 0,12.7269 -10.3172,23.0441 -23.0441,23.0441 -12.72691,0 -23.04411,-10.3172 -23.04411,-23.0441 0,-12.72691 10.3172,-23.04411 23.04411,-23.04411 12.7269,0 23.0441,10.3172 23.0441,23.04411 z"
       sodipodi:ry="23.044106"
       sodipodi:rx="23.044106"
       sodipodi:cy="958.22858"
       sodipodi:cx="243.76244"
       id="path3822-8-4-7"
       style="fill:none;stroke:#000000;stroke-width:1.75150704;stroke-miterlimit:4;stroke-opacity:1;stroke-dasharray:none"
       sodipodi:type="arc"
       transform="matrix(1.5921047,0,0,1.5921047,139.90714,-1084.2957)" />
    <path
       transform="matrix(2.2346223,0,0,2.2346223,549.74507,-1672.2339)"
       d="m 196.97974,906.52142 c 0,12.97099 -10.51506,23.48605 -23.48604,23.48605 -12.97099,0 -23.48605,-10.51506 -23.48605,-23.48605 0,-12.97098 10.51506,-23.48604 23.48605,-23.48604 12.97098,0 23.48604,10.51506 23.48604,23.48604 z"
       sodipodi:ry="23.486046"
       sodipodi:rx="23.486046"
       sodipodi:cy="906.52142"
       sodipodi:cx="173.4937"
       id="path3818-2"
       style="fill:none;stroke:#000000;stroke-width:1.24789894;stroke-miterlimit:4;stroke-opacity:1;stroke-dasharray:none"
       sodipodi:type="arc" />
    <path
       transform="matrix(2.2346223,0,0,2.2346223,549.74507,-1672.2339)"
       d="m 198.49497,977.16895 c 0,12.79664 -10.37373,23.17035 -23.17037,23.17035 -12.79664,0 -23.17037,-10.37371 -23.17037,-23.17035 0,-12.79665 10.37373,-23.17038 23.17037,-23.17038 12.79664,0 23.17037,10.37373 23.17037,23.17038 z"
       sodipodi:ry="23.170374"
       sodipodi:rx="23.170374"
       sodipodi:cy="977.16895"
       sodipodi:cx="175.3246"
       id="path3820-3"
       style="fill:none;stroke:#000000;stroke-width:1.24789894;stroke-miterlimit:4;stroke-opacity:1;stroke-dasharray:none"
       sodipodi:type="arc" />
    <path
       transform="matrix(2.2346223,0,0,2.2346223,529.74507,-1672.2339)"
       d="m 266.80654,958.22858 c 0,12.7269 -10.3172,23.0441 -23.0441,23.0441 -12.72691,0 -23.04411,-10.3172 -23.04411,-23.0441 0,-12.72691 10.3172,-23.04411 23.04411,-23.04411 12.7269,0 23.0441,10.3172 23.0441,23.04411 z"
       sodipodi:ry="23.044106"
       sodipodi:rx="23.044106"
       sodipodi:cy="958.22858"
       sodipodi:cx="243.76244"
       id="path3822-5"
       style="fill:none;stroke:#000000;stroke-width:1.24789894;stroke-miterlimit:4;stroke-opacity:1;stroke-dasharray:none"
       sodipodi:type="arc" />
    <path
       d="m 266.80654,958.22858 c 0,12.7269 -10.3172,23.0441 -23.0441,23.0441 -12.72691,0 -23.04411,-10.3172 -23.04411,-23.0441 0,-12.72691 10.3172,-23.04411 23.04411,-23.04411 12.7269,0 23.0441,10.3172 23.0441,23.04411 z"
       sodipodi:ry="23.044106"
       sodipodi:rx="23.044106"
       sodipodi:cy="958.22858"
       sodipodi:cx="243.76244"
       id="path3822-4-6"
       style="fill:none;stroke:#000000;stroke-width:1.24789894;stroke-miterlimit:4;stroke-opacity:1;stroke-dasharray:none"
       sodipodi:type="arc"
       transform="matrix(2.2346223,0,0,2.2346223,662.97675,-1673.2215)" />
    <path
       d="m 266.80654,958.22858 c 0,12.7269 -10.3172,23.0441 -23.0441,23.0441 -12.72691,0 -23.04411,-10.3172 -23.04411,-23.0441 0,-12.72691 10.3172,-23.04411 23.04411,-23.04411 12.7269,0 23.0441,10.3172 23.0441,23.04411 z"
       sodipodi:ry="23.044106"
       sodipodi:rx="23.044106"
       sodipodi:cy="958.22858"
       sodipodi:cx="243.76244"
       id="path3822-0-8"
       style="fill:none;stroke:#000000;stroke-width:1.24789894;stroke-miterlimit:4;stroke-opacity:1;stroke-dasharray:none"
       sodipodi:type="arc"
       transform="matrix(2.2346223,0,0,2.2346223,526.78236,-1832.6439)" />
    <path
       d="m 266.80654,958.22858 c 0,12.7269 -10.3172,23.0441 -23.0441,23.0441 -12.72691,0 -23.04411,-10.3172 -23.04411,-23.0441 0,-12.72691 10.3172,-23.04411 23.04411,-23.04411 12.7269,0 23.0441,10.3172 23.0441,23.04411 z"
       sodipodi:ry="23.044106"
       sodipodi:rx="23.044106"
       sodipodi:cy="958.22858"
       sodipodi:cx="243.76244"
       id="path3822-9-0"
       style="fill:none;stroke:#000000;stroke-width:1.24789894;stroke-miterlimit:4;stroke-opacity:1;stroke-dasharray:none"
       sodipodi:type="arc"
       transform="matrix(2.2346223,0,0,2.2346223,662.13025,-1839.4159)" />
  </g>
  <g
     id="g3035"
     style="stroke:#000000;stroke-width:2.78858256;stroke-miterlimit:4;stroke-opacity:1;stroke-dasharray:none"
     transform="translate(30.530285,42)">
    <path
       d="m 266.80654,958.22858 c 0,12.7269 -10.3172,23.0441 -23.0441,23.0441 -12.72691,0 -23.04411,-10.3172 -23.04411,-23.0441 0,-12.72691 10.3172,-23.04411 23.04411,-23.04411 12.7269,0 23.0441,10.3172 23.0441,23.04411 z"
       sodipodi:ry="23.044106"
       sodipodi:rx="23.044106"
       sodipodi:cy="958.22858"
       sodipodi:cx="243.76244"
       id="path3822-48-8"
       style="fill:none;stroke:#000000;stroke-width:1.24789894;stroke-miterlimit:4;stroke-opacity:1;stroke-dasharray:none"
       sodipodi:type="arc"
       transform="matrix(2.2346223,0,0,2.2346223,244.17049,-2021.37)" />
    <path
       d="m 266.80654,958.22858 c 0,12.7269 -10.3172,23.0441 -23.0441,23.0441 -12.72691,0 -23.04411,-10.3172 -23.04411,-23.0441 0,-12.72691 10.3172,-23.04411 23.04411,-23.04411 12.7269,0 23.0441,10.3172 23.0441,23.04411 z"
       sodipodi:ry="23.044106"
       sodipodi:rx="23.044106"
       sodipodi:cy="958.22858"
       sodipodi:cx="243.76244"
       id="path3822-8-6"
       style="fill:none;stroke:#000000;stroke-width:1.55682647;stroke-miterlimit:4;stroke-opacity:1;stroke-dasharray:none"
       sodipodi:type="arc"
       transform="matrix(1.7911969,0,0,1.7911969,471.6162,-1599.0065)" />
    <path
       d="m 266.80654,958.22858 c 0,12.7269 -10.3172,23.0441 -23.0441,23.0441 -12.72691,0 -23.04411,-10.3172 -23.04411,-23.0441 0,-12.72691 10.3172,-23.04411 23.04411,-23.04411 12.7269,0 23.0441,10.3172 23.0441,23.04411 z"
       sodipodi:ry="23.044106"
       sodipodi:rx="23.044106"
       sodipodi:cy="958.22858"
       sodipodi:cx="243.76244"
       id="path3822-8-4-1"
       style="fill:none;stroke:#000000;stroke-width:1.55682647;stroke-miterlimit:4;stroke-opacity:1;stroke-dasharray:none"
       sodipodi:type="arc"
       transform="matrix(1.7911969,0,0,1.7911969,235.44519,-1599.853)" />
  </g>
  <g
     id="g4023"
     transform="translate(-11.994164,0)">
    <path
       d="m -238.60449,-128.10492 0,-56.3049 48.76147,-28.15245 48.76148,28.15245 0,56.3049 -48.76148,28.152451 z"
       inkscape:randomized="0"
       inkscape:rounded="0"
       inkscape:flatsided="true"
       sodipodi:arg2="3.1415927"
       sodipodi:arg1="2.6179939"
       sodipodi:r2="48.761475"
       sodipodi:r1="56.304901"
       sodipodi:cy="-156.25737"
       sodipodi:cx="-189.84302"
       sodipodi:sides="6"
       id="path3881-4"
       style="fill:none;stroke:#000000;stroke-width:8.84847164;stroke-linecap:butt;stroke-miterlimit:4;stroke-opacity:1;stroke-dasharray:none;stroke-dashoffset:0"
       sodipodi:type="star"
       transform="matrix(0.31169243,0,0,0.31169243,149.01892,172.78923)" />
    <path
       d="m -238.60449,-128.10492 0,-56.3049 48.76147,-28.15245 48.76148,28.15245 0,56.3049 -48.76148,28.152451 z"
       inkscape:randomized="0"
       inkscape:rounded="0"
       inkscape:flatsided="true"
       sodipodi:arg2="3.1415927"
       sodipodi:arg1="2.6179939"
       sodipodi:r2="48.761475"
       sodipodi:r1="56.304901"
       sodipodi:cy="-156.25737"
       sodipodi:cx="-189.84302"
       sodipodi:sides="6"
       id="path3881-7-4-5"
       style="fill:none;stroke:#000000;stroke-width:8.84847164;stroke-linecap:butt;stroke-miterlimit:4;stroke-opacity:1;stroke-dasharray:none;stroke-dashoffset:0"
       sodipodi:type="star"
       transform="matrix(0.31169243,0,0,0.31169243,184.1531,172.78923)" />
    <path
       d="m -238.60449,-128.10492 0,-56.3049 48.76147,-28.15245 48.76148,28.15245 0,56.3049 -48.76148,28.152451 z"
       inkscape:randomized="0"
       inkscape:rounded="0"
       inkscape:flatsided="true"
       sodipodi:arg2="3.1415927"
       sodipodi:arg1="2.6179939"
       sodipodi:r2="48.761475"
       sodipodi:r1="56.304901"
       sodipodi:cy="-156.25737"
       sodipodi:cx="-189.84302"
       sodipodi:sides="6"
       id="path3881-4-1"
       style="fill:none;stroke:#000000;stroke-width:8.84847164;stroke-linecap:butt;stroke-miterlimit:4;stroke-opacity:1;stroke-dasharray:none;stroke-dashoffset:0"
       sodipodi:type="star"
       transform="matrix(0.31169243,0,0,0.31169243,219.28731,172.78923)" />
    <path
       d="m -238.60449,-128.10492 0,-56.3049 48.76147,-28.15245 48.76148,28.15245 0,56.3049 -48.76148,28.152451 z"
       inkscape:randomized="0"
       inkscape:rounded="0"
       inkscape:flatsided="true"
       sodipodi:arg2="3.1415927"
       sodipodi:arg1="2.6179939"
       sodipodi:r2="48.761475"
       sodipodi:r1="56.304901"
       sodipodi:cy="-156.25737"
       sodipodi:cx="-189.84302"
       sodipodi:sides="6"
       id="path3881-7-4-5-4"
       style="fill:none;stroke:#000000;stroke-width:8.84847164;stroke-linecap:butt;stroke-miterlimit:4;stroke-opacity:1;stroke-dasharray:none;stroke-dashoffset:0"
       sodipodi:type="star"
       transform="matrix(0.31169243,0,0,0.31169243,254.42152,172.78923)" />
    <path
       transform="matrix(0.31169243,0,0,0.31169243,131.53609,203.64127)"
       d="m -238.60449,-128.10492 0,-56.3049 48.76147,-28.15245 48.76148,28.15245 0,56.3049 -48.76148,28.152451 z"
       inkscape:randomized="0"
       inkscape:rounded="0"
       inkscape:flatsided="true"
       sodipodi:arg2="3.1415927"
       sodipodi:arg1="2.6179939"
       sodipodi:r2="48.761475"
       sodipodi:r1="56.304901"
       sodipodi:cy="-156.25737"
       sodipodi:cx="-189.84302"
       sodipodi:sides="6"
       id="path3881-2"
       style="fill:none;stroke:#000000;stroke-width:8.84847164;stroke-linecap:butt;stroke-miterlimit:4;stroke-opacity:1;stroke-dasharray:none;stroke-dashoffset:0"
       sodipodi:type="star" />
    <path
       d="m -238.60449,-128.10492 0,-56.3049 48.76147,-28.15245 48.76148,28.15245 0,56.3049 -48.76148,28.152451 z"
       inkscape:randomized="0"
       inkscape:rounded="0"
       inkscape:flatsided="true"
       sodipodi:arg2="3.1415927"
       sodipodi:arg1="2.6179939"
       sodipodi:r2="48.761475"
       sodipodi:r1="56.304901"
       sodipodi:cy="-156.25737"
       sodipodi:cx="-189.84302"
       sodipodi:sides="6"
       id="path3881-7-4-2"
       style="fill:none;stroke:#000000;stroke-width:8.84847164;stroke-linecap:butt;stroke-miterlimit:4;stroke-opacity:1;stroke-dasharray:none;stroke-dashoffset:0"
       sodipodi:type="star"
       transform="matrix(0.31169243,0,0,0.31169243,166.83089,203.64127)" />
    <path
       d="m -238.60449,-128.10492 0,-56.3049 48.76147,-28.15245 48.76148,28.15245 0,56.3049 -48.76148,28.152451 z"
       inkscape:randomized="0"
       inkscape:rounded="0"
       inkscape:flatsided="true"
       sodipodi:arg2="3.1415927"
       sodipodi:arg1="2.6179939"
       sodipodi:r2="48.761475"
       sodipodi:r1="56.304901"
       sodipodi:cy="-156.25737"
       sodipodi:cx="-189.84302"
       sodipodi:sides="6"
       id="path3881-4-16"
       style="fill:none;stroke:#000000;stroke-width:8.84847164;stroke-linecap:butt;stroke-miterlimit:4;stroke-opacity:1;stroke-dasharray:none;stroke-dashoffset:0"
       sodipodi:type="star"
       transform="matrix(0.31169243,0,0,0.31169243,148.7816,233.70223)" />
    <path
       d="m -238.60449,-128.10492 0,-56.3049 48.76147,-28.15245 48.76148,28.15245 0,56.3049 -48.76148,28.152451 z"
       inkscape:randomized="0"
       inkscape:rounded="0"
       inkscape:flatsided="true"
       sodipodi:arg2="3.1415927"
       sodipodi:arg1="2.6179939"
       sodipodi:r2="48.761475"
       sodipodi:r1="56.304901"
       sodipodi:cy="-156.25737"
       sodipodi:cx="-189.84302"
       sodipodi:sides="6"
       id="path3881-7-4-5-8"
       style="fill:none;stroke:#000000;stroke-width:8.84847164;stroke-linecap:butt;stroke-miterlimit:4;stroke-opacity:1;stroke-dasharray:none;stroke-dashoffset:0"
       sodipodi:type="star"
       transform="matrix(0.31169243,0,0,0.31169243,184.0853,233.70223)" />
    <path
       transform="matrix(0.31169243,0,0,0.31169243,202.12569,203.64127)"
       d="m -238.60449,-128.10492 0,-56.3049 48.76147,-28.15245 48.76148,28.15245 0,56.3049 -48.76148,28.152451 z"
       inkscape:randomized="0"
       inkscape:rounded="0"
       inkscape:flatsided="true"
       sodipodi:arg2="3.1415927"
       sodipodi:arg1="2.6179939"
       sodipodi:r2="48.761475"
       sodipodi:r1="56.304901"
       sodipodi:cy="-156.25737"
       sodipodi:cx="-189.84302"
       sodipodi:sides="6"
       id="path3881-76"
       style="fill:none;stroke:#000000;stroke-width:8.84847164;stroke-linecap:butt;stroke-miterlimit:4;stroke-opacity:1;stroke-dasharray:none;stroke-dashoffset:0"
       sodipodi:type="star" />
    <path
       d="m -238.60449,-128.10492 0,-56.3049 48.76147,-28.15245 48.76148,28.15245 0,56.3049 -48.76148,28.152451 z"
       inkscape:randomized="0"
       inkscape:rounded="0"
       inkscape:flatsided="true"
       sodipodi:arg2="3.1415927"
       sodipodi:arg1="2.6179939"
       sodipodi:r2="48.761475"
       sodipodi:r1="56.304901"
       sodipodi:cy="-156.25737"
       sodipodi:cx="-189.84302"
       sodipodi:sides="6"
       id="path3881-7-4-1"
       style="fill:none;stroke:#000000;stroke-width:8.84847164;stroke-linecap:butt;stroke-miterlimit:4;stroke-opacity:1;stroke-dasharray:none;stroke-dashoffset:0"
       sodipodi:type="star"
       transform="matrix(0.31169243,0,0,0.31169243,237.4205,203.64127)" />
    <path
       d="m -238.60449,-128.10492 0,-56.3049 48.76147,-28.15245 48.76148,28.15245 0,56.3049 -48.76148,28.152451 z"
       inkscape:randomized="0"
       inkscape:rounded="0"
       inkscape:flatsided="true"
       sodipodi:arg2="3.1415927"
       sodipodi:arg1="2.6179939"
       sodipodi:r2="48.761475"
       sodipodi:r1="56.304901"
       sodipodi:cy="-156.25737"
       sodipodi:cx="-189.84302"
       sodipodi:sides="6"
       id="path3881-4-8"
       style="fill:none;stroke:#000000;stroke-width:8.84847164;stroke-linecap:butt;stroke-miterlimit:4;stroke-opacity:1;stroke-dasharray:none;stroke-dashoffset:0"
       sodipodi:type="star"
       transform="matrix(0.31169243,0,0,0.31169243,219.38901,233.70223)" />
    <path
       d="m -238.60449,-128.10492 0,-56.3049 48.76147,-28.15245 48.76148,28.15245 0,56.3049 -48.76148,28.152451 z"
       inkscape:randomized="0"
       inkscape:rounded="0"
       inkscape:flatsided="true"
       sodipodi:arg2="3.1415927"
       sodipodi:arg1="2.6179939"
       sodipodi:r2="48.761475"
       sodipodi:r1="56.304901"
       sodipodi:cy="-156.25737"
       sodipodi:cx="-189.84302"
       sodipodi:sides="6"
       id="path3881-7-4-5-9"
       style="fill:none;stroke:#000000;stroke-width:8.84847164;stroke-linecap:butt;stroke-miterlimit:4;stroke-opacity:1;stroke-dasharray:none;stroke-dashoffset:0"
       sodipodi:type="star"
       transform="matrix(0.31169243,0,0,0.31169243,254.69274,233.70223)" />
    <path
       d="m -238.60449,-128.10492 0,-56.3049 48.76147,-28.15245 48.76148,28.15245 0,56.3049 -48.76148,28.152451 z"
       inkscape:randomized="0"
       inkscape:rounded="0"
       inkscape:flatsided="true"
       sodipodi:arg2="3.1415927"
       sodipodi:arg1="2.6179939"
       sodipodi:r2="48.761475"
       sodipodi:r1="56.304901"
       sodipodi:cy="-156.25737"
       sodipodi:cx="-189.84302"
       sodipodi:sides="6"
       id="path3881-4-87"
       style="fill:none;stroke:#000000;stroke-width:8.84847164;stroke-linecap:butt;stroke-miterlimit:4;stroke-opacity:1;stroke-dasharray:none;stroke-dashoffset:0"
       sodipodi:type="star"
       transform="matrix(0.31169243,0,0,0.31169243,289.55571,172.78922)" />
    <path
       d="m -238.60449,-128.10492 0,-56.3049 48.76147,-28.15245 48.76148,28.15245 0,56.3049 -48.76148,28.152451 z"
       inkscape:randomized="0"
       inkscape:rounded="0"
       inkscape:flatsided="true"
       sodipodi:arg2="3.1415927"
       sodipodi:arg1="2.6179939"
       sodipodi:r2="48.761475"
       sodipodi:r1="56.304901"
       sodipodi:cy="-156.25737"
       sodipodi:cx="-189.84302"
       sodipodi:sides="6"
       id="path3881-7-4-5-42"
       style="fill:none;stroke:#000000;stroke-width:8.84847164;stroke-linecap:butt;stroke-miterlimit:4;stroke-opacity:1;stroke-dasharray:none;stroke-dashoffset:0"
       sodipodi:type="star"
       transform="matrix(0.31169243,0,0,0.31169243,324.68992,172.78922)" />
    <path
       d="m -238.60449,-128.10492 0,-56.3049 48.76147,-28.15245 48.76148,28.15245 0,56.3049 -48.76148,28.152451 z"
       inkscape:randomized="0"
       inkscape:rounded="0"
       inkscape:flatsided="true"
       sodipodi:arg2="3.1415927"
       sodipodi:arg1="2.6179939"
       sodipodi:r2="48.761475"
       sodipodi:r1="56.304901"
       sodipodi:cy="-156.25737"
       sodipodi:cx="-189.84302"
       sodipodi:sides="6"
       id="path3881-4-1-3"
       style="fill:none;stroke:#000000;stroke-width:8.84847164;stroke-linecap:butt;stroke-miterlimit:4;stroke-opacity:1;stroke-dasharray:none;stroke-dashoffset:0"
       sodipodi:type="star"
       transform="matrix(0.31169243,0,0,0.31169243,359.82413,172.78922)" />
    <path
       d="m -238.60449,-128.10492 0,-56.3049 48.76147,-28.15245 48.76148,28.15245 0,56.3049 -48.76148,28.152451 z"
       inkscape:randomized="0"
       inkscape:rounded="0"
       inkscape:flatsided="true"
       sodipodi:arg2="3.1415927"
       sodipodi:arg1="2.6179939"
       sodipodi:r2="48.761475"
       sodipodi:r1="56.304901"
       sodipodi:cy="-156.25737"
       sodipodi:cx="-189.84302"
       sodipodi:sides="6"
       id="path3881-7-4-5-4-1"
       style="fill:none;stroke:#000000;stroke-width:8.84847164;stroke-linecap:butt;stroke-miterlimit:4;stroke-opacity:1;stroke-dasharray:none;stroke-dashoffset:0"
       sodipodi:type="star"
       transform="matrix(0.31169243,0,0,0.31169243,394.95832,172.78922)" />
    <path
       transform="matrix(0.31169243,0,0,0.31169243,272.7153,203.64126)"
       d="m -238.60449,-128.10492 0,-56.3049 48.76147,-28.15245 48.76148,28.15245 0,56.3049 -48.76148,28.152451 z"
       inkscape:randomized="0"
       inkscape:rounded="0"
       inkscape:flatsided="true"
       sodipodi:arg2="3.1415927"
       sodipodi:arg1="2.6179939"
       sodipodi:r2="48.761475"
       sodipodi:r1="56.304901"
       sodipodi:cy="-156.25737"
       sodipodi:cx="-189.84302"
       sodipodi:sides="6"
       id="path3881-2-8"
       style="fill:none;stroke:#000000;stroke-width:8.84847164;stroke-linecap:butt;stroke-miterlimit:4;stroke-opacity:1;stroke-dasharray:none;stroke-dashoffset:0"
       sodipodi:type="star" />
    <path
       d="m -238.60449,-128.10492 0,-56.3049 48.76147,-28.15245 48.76148,28.15245 0,56.3049 -48.76148,28.152451 z"
       inkscape:randomized="0"
       inkscape:rounded="0"
       inkscape:flatsided="true"
       sodipodi:arg2="3.1415927"
       sodipodi:arg1="2.6179939"
       sodipodi:r2="48.761475"
       sodipodi:r1="56.304901"
       sodipodi:cy="-156.25737"
       sodipodi:cx="-189.84302"
       sodipodi:sides="6"
       id="path3881-7-4-2-6"
       style="fill:none;stroke:#000000;stroke-width:8.84847164;stroke-linecap:butt;stroke-miterlimit:4;stroke-opacity:1;stroke-dasharray:none;stroke-dashoffset:0"
       sodipodi:type="star"
       transform="matrix(0.31169243,0,0,0.31169243,308.01011,203.64126)" />
    <path
       d="m -238.60449,-128.10492 0,-56.3049 48.76147,-28.15245 48.76148,28.15245 0,56.3049 -48.76148,28.152451 z"
       inkscape:randomized="0"
       inkscape:rounded="0"
       inkscape:flatsided="true"
       sodipodi:arg2="3.1415927"
       sodipodi:arg1="2.6179939"
       sodipodi:r2="48.761475"
       sodipodi:r1="56.304901"
       sodipodi:cy="-156.25737"
       sodipodi:cx="-189.84302"
       sodipodi:sides="6"
       id="path3881-4-16-5"
       style="fill:none;stroke:#000000;stroke-width:8.84847164;stroke-linecap:butt;stroke-miterlimit:4;stroke-opacity:1;stroke-dasharray:none;stroke-dashoffset:0"
       sodipodi:type="star"
       transform="matrix(0.31169243,0,0,0.31169243,289.99645,233.70222)" />
    <path
       d="m -238.60449,-128.10492 0,-56.3049 48.76147,-28.15245 48.76148,28.15245 0,56.3049 -48.76148,28.152451 z"
       inkscape:randomized="0"
       inkscape:rounded="0"
       inkscape:flatsided="true"
       sodipodi:arg2="3.1415927"
       sodipodi:arg1="2.6179939"
       sodipodi:r2="48.761475"
       sodipodi:r1="56.304901"
       sodipodi:cy="-156.25737"
       sodipodi:cx="-189.84302"
       sodipodi:sides="6"
       id="path3881-7-4-5-8-0"
       style="fill:none;stroke:#000000;stroke-width:8.84847164;stroke-linecap:butt;stroke-miterlimit:4;stroke-opacity:1;stroke-dasharray:none;stroke-dashoffset:0"
       sodipodi:type="star"
       transform="matrix(0.31169243,0,0,0.31169243,325.30017,233.70222)" />
    <path
       transform="matrix(0.31169243,0,0,0.31169243,343.30492,203.64126)"
       d="m -238.60449,-128.10492 0,-56.3049 48.76147,-28.15245 48.76148,28.15245 0,56.3049 -48.76148,28.152451 z"
       inkscape:randomized="0"
       inkscape:rounded="0"
       inkscape:flatsided="true"
       sodipodi:arg2="3.1415927"
       sodipodi:arg1="2.6179939"
       sodipodi:r2="48.761475"
       sodipodi:r1="56.304901"
       sodipodi:cy="-156.25737"
       sodipodi:cx="-189.84302"
       sodipodi:sides="6"
       id="path3881-76-8"
       style="fill:none;stroke:#000000;stroke-width:8.84847164;stroke-linecap:butt;stroke-miterlimit:4;stroke-opacity:1;stroke-dasharray:none;stroke-dashoffset:0"
       sodipodi:type="star" />
    <path
       d="m -238.60449,-128.10492 0,-56.3049 48.76147,-28.15245 48.76148,28.15245 0,56.3049 -48.76148,28.152451 z"
       inkscape:randomized="0"
       inkscape:rounded="0"
       inkscape:flatsided="true"
       sodipodi:arg2="3.1415927"
       sodipodi:arg1="2.6179939"
       sodipodi:r2="48.761475"
       sodipodi:r1="56.304901"
       sodipodi:cy="-156.25737"
       sodipodi:cx="-189.84302"
       sodipodi:sides="6"
       id="path3881-7-4-1-6"
       style="fill:none;stroke:#000000;stroke-width:8.84847164;stroke-linecap:butt;stroke-miterlimit:4;stroke-opacity:1;stroke-dasharray:none;stroke-dashoffset:0"
       sodipodi:type="star"
       transform="matrix(0.31169243,0,0,0.31169243,378.59972,203.64126)" />
    <path
       d="m -238.60449,-128.10492 0,-56.3049 48.76147,-28.15245 48.76148,28.15245 0,56.3049 -48.76148,28.152451 z"
       inkscape:randomized="0"
       inkscape:rounded="0"
       inkscape:flatsided="true"
       sodipodi:arg2="3.1415927"
       sodipodi:arg1="2.6179939"
       sodipodi:r2="48.761475"
       sodipodi:r1="56.304901"
       sodipodi:cy="-156.25737"
       sodipodi:cx="-189.84302"
       sodipodi:sides="6"
       id="path3881-4-8-0"
       style="fill:none;stroke:#000000;stroke-width:8.84847164;stroke-linecap:butt;stroke-miterlimit:4;stroke-opacity:1;stroke-dasharray:none;stroke-dashoffset:0"
       sodipodi:type="star"
       transform="matrix(0.31169243,0,0,0.31169243,360.6039,233.70222)" />
    <path
       d="m -238.60449,-128.10492 0,-56.3049 48.76147,-28.15245 48.76148,28.15245 0,56.3049 -48.76148,28.152451 z"
       inkscape:randomized="0"
       inkscape:rounded="0"
       inkscape:flatsided="true"
       sodipodi:arg2="3.1415927"
       sodipodi:arg1="2.6179939"
       sodipodi:r2="48.761475"
       sodipodi:r1="56.304901"
       sodipodi:cy="-156.25737"
       sodipodi:cx="-189.84302"
       sodipodi:sides="6"
       id="path3881-7-4-5-9-2"
       style="fill:none;stroke:#000000;stroke-width:8.84847164;stroke-linecap:butt;stroke-miterlimit:4;stroke-opacity:1;stroke-dasharray:none;stroke-dashoffset:0"
       sodipodi:type="star"
       transform="matrix(0.31169243,0,0,0.31169243,395.9076,233.70222)" />
    <path
       d="m -238.60449,-128.10492 0,-56.3049 48.76147,-28.15245 48.76148,28.15245 0,56.3049 -48.76148,28.152451 z"
       inkscape:randomized="0"
       inkscape:rounded="0"
       inkscape:flatsided="true"
       sodipodi:arg2="3.1415927"
       sodipodi:arg1="2.6179939"
       sodipodi:r2="48.761475"
       sodipodi:r1="56.304901"
       sodipodi:cy="-156.25737"
       sodipodi:cx="-189.84302"
       sodipodi:sides="6"
       id="path3881-7-4-1-6-6"
       style="fill:none;stroke:#000000;stroke-width:8.84847164;stroke-linecap:butt;stroke-miterlimit:4;stroke-opacity:1;stroke-dasharray:none;stroke-dashoffset:0"
       sodipodi:type="star"
       transform="matrix(0.31169243,0,0,0.31169243,413.89452,204.02936)" />
    <path
       d="m -238.60449,-128.10492 0,-56.3049 48.76147,-28.15245 48.76148,28.15245 0,56.3049 -48.76148,28.152451 z"
       inkscape:randomized="0"
       inkscape:rounded="0"
       inkscape:flatsided="true"
       sodipodi:arg2="3.1415927"
       sodipodi:arg1="2.6179939"
       sodipodi:r2="48.761475"
       sodipodi:r1="56.304901"
       sodipodi:cy="-156.25737"
       sodipodi:cx="-189.84302"
       sodipodi:sides="6"
       id="path3881-4-89"
       style="fill:none;stroke:#000000;stroke-width:8.84847164;stroke-linecap:butt;stroke-miterlimit:4;stroke-opacity:1;stroke-dasharray:none;stroke-dashoffset:0"
       sodipodi:type="star"
       transform="matrix(0.31169243,0,0,0.31169243,1387.2969,172.78923)" />
    <path
       d="m -238.60449,-128.10492 0,-56.3049 48.76147,-28.15245 48.76148,28.15245 0,56.3049 -48.76148,28.152451 z"
       inkscape:randomized="0"
       inkscape:rounded="0"
       inkscape:flatsided="true"
       sodipodi:arg2="3.1415927"
       sodipodi:arg1="2.6179939"
       sodipodi:r2="48.761475"
       sodipodi:r1="56.304901"
       sodipodi:cy="-156.25737"
       sodipodi:cx="-189.84302"
       sodipodi:sides="6"
       id="path3881-7-4-5-3"
       style="fill:none;stroke:#000000;stroke-width:8.84847164;stroke-linecap:butt;stroke-miterlimit:4;stroke-opacity:1;stroke-dasharray:none;stroke-dashoffset:0"
       sodipodi:type="star"
       transform="matrix(0.31169243,0,0,0.31169243,1422.4311,172.78923)" />
    <path
       d="m -238.60449,-128.10492 0,-56.3049 48.76147,-28.15245 48.76148,28.15245 0,56.3049 -48.76148,28.152451 z"
       inkscape:randomized="0"
       inkscape:rounded="0"
       inkscape:flatsided="true"
       sodipodi:arg2="3.1415927"
       sodipodi:arg1="2.6179939"
       sodipodi:r2="48.761475"
       sodipodi:r1="56.304901"
       sodipodi:cy="-156.25737"
       sodipodi:cx="-189.84302"
       sodipodi:sides="6"
       id="path3881-4-1-0"
       style="fill:none;stroke:#000000;stroke-width:8.84847164;stroke-linecap:butt;stroke-miterlimit:4;stroke-opacity:1;stroke-dasharray:none;stroke-dashoffset:0"
       sodipodi:type="star"
       transform="matrix(0.31169243,0,0,0.31169243,1457.5653,172.78923)" />
    <path
       d="m -238.60449,-128.10492 0,-56.3049 48.76147,-28.15245 48.76148,28.15245 0,56.3049 -48.76148,28.152451 z"
       inkscape:randomized="0"
       inkscape:rounded="0"
       inkscape:flatsided="true"
       sodipodi:arg2="3.1415927"
       sodipodi:arg1="2.6179939"
       sodipodi:r2="48.761475"
       sodipodi:r1="56.304901"
       sodipodi:cy="-156.25737"
       sodipodi:cx="-189.84302"
       sodipodi:sides="6"
       id="path3881-7-4-5-4-6"
       style="fill:none;stroke:#000000;stroke-width:8.84847164;stroke-linecap:butt;stroke-miterlimit:4;stroke-opacity:1;stroke-dasharray:none;stroke-dashoffset:0"
       sodipodi:type="star"
       transform="matrix(0.31169243,0,0,0.31169243,1492.6996,172.78923)" />
    <path
       transform="matrix(0.31169243,0,0,0.31169243,1369.8141,203.64127)"
       d="m -238.60449,-128.10492 0,-56.3049 48.76147,-28.15245 48.76148,28.15245 0,56.3049 -48.76148,28.152451 z"
       inkscape:randomized="0"
       inkscape:rounded="0"
       inkscape:flatsided="true"
       sodipodi:arg2="3.1415927"
       sodipodi:arg1="2.6179939"
       sodipodi:r2="48.761475"
       sodipodi:r1="56.304901"
       sodipodi:cy="-156.25737"
       sodipodi:cx="-189.84302"
       sodipodi:sides="6"
       id="path3881-2-6"
       style="fill:none;stroke:#000000;stroke-width:8.84847164;stroke-linecap:butt;stroke-miterlimit:4;stroke-opacity:1;stroke-dasharray:none;stroke-dashoffset:0"
       sodipodi:type="star" />
    <path
       d="m -238.60449,-128.10492 0,-56.3049 48.76147,-28.15245 48.76148,28.15245 0,56.3049 -48.76148,28.152451 z"
       inkscape:randomized="0"
       inkscape:rounded="0"
       inkscape:flatsided="true"
       sodipodi:arg2="3.1415927"
       sodipodi:arg1="2.6179939"
       sodipodi:r2="48.761475"
       sodipodi:r1="56.304901"
       sodipodi:cy="-156.25737"
       sodipodi:cx="-189.84302"
       sodipodi:sides="6"
       id="path3881-7-4-2-1"
       style="fill:none;stroke:#000000;stroke-width:8.84847164;stroke-linecap:butt;stroke-miterlimit:4;stroke-opacity:1;stroke-dasharray:none;stroke-dashoffset:0"
       sodipodi:type="star"
       transform="matrix(0.31169243,0,0,0.31169243,1405.1089,203.64127)" />
    <path
       d="m -238.60449,-128.10492 0,-56.3049 48.76147,-28.15245 48.76148,28.15245 0,56.3049 -48.76148,28.152451 z"
       inkscape:randomized="0"
       inkscape:rounded="0"
       inkscape:flatsided="true"
       sodipodi:arg2="3.1415927"
       sodipodi:arg1="2.6179939"
       sodipodi:r2="48.761475"
       sodipodi:r1="56.304901"
       sodipodi:cy="-156.25737"
       sodipodi:cx="-189.84302"
       sodipodi:sides="6"
       id="path3881-4-16-8"
       style="fill:none;stroke:#000000;stroke-width:8.84847164;stroke-linecap:butt;stroke-miterlimit:4;stroke-opacity:1;stroke-dasharray:none;stroke-dashoffset:0"
       sodipodi:type="star"
       transform="matrix(0.31169243,0,0,0.31169243,1387.0596,233.70223)" />
    <path
       d="m -238.60449,-128.10492 0,-56.3049 48.76147,-28.15245 48.76148,28.15245 0,56.3049 -48.76148,28.152451 z"
       inkscape:randomized="0"
       inkscape:rounded="0"
       inkscape:flatsided="true"
       sodipodi:arg2="3.1415927"
       sodipodi:arg1="2.6179939"
       sodipodi:r2="48.761475"
       sodipodi:r1="56.304901"
       sodipodi:cy="-156.25737"
       sodipodi:cx="-189.84302"
       sodipodi:sides="6"
       id="path3881-7-4-5-8-4"
       style="fill:none;stroke:#000000;stroke-width:8.84847164;stroke-linecap:butt;stroke-miterlimit:4;stroke-opacity:1;stroke-dasharray:none;stroke-dashoffset:0"
       sodipodi:type="star"
       transform="matrix(0.31169243,0,0,0.31169243,1422.3632,233.70223)" />
    <path
       transform="matrix(0.31169243,0,0,0.31169243,1440.4037,203.64127)"
       d="m -238.60449,-128.10492 0,-56.3049 48.76147,-28.15245 48.76148,28.15245 0,56.3049 -48.76148,28.152451 z"
       inkscape:randomized="0"
       inkscape:rounded="0"
       inkscape:flatsided="true"
       sodipodi:arg2="3.1415927"
       sodipodi:arg1="2.6179939"
       sodipodi:r2="48.761475"
       sodipodi:r1="56.304901"
       sodipodi:cy="-156.25737"
       sodipodi:cx="-189.84302"
       sodipodi:sides="6"
       id="path3881-76-9"
       style="fill:none;stroke:#000000;stroke-width:8.84847164;stroke-linecap:butt;stroke-miterlimit:4;stroke-opacity:1;stroke-dasharray:none;stroke-dashoffset:0"
       sodipodi:type="star" />
    <path
       d="m -238.60449,-128.10492 0,-56.3049 48.76147,-28.15245 48.76148,28.15245 0,56.3049 -48.76148,28.152451 z"
       inkscape:randomized="0"
       inkscape:rounded="0"
       inkscape:flatsided="true"
       sodipodi:arg2="3.1415927"
       sodipodi:arg1="2.6179939"
       sodipodi:r2="48.761475"
       sodipodi:r1="56.304901"
       sodipodi:cy="-156.25737"
       sodipodi:cx="-189.84302"
       sodipodi:sides="6"
       id="path3881-7-4-1-63"
       style="fill:none;stroke:#000000;stroke-width:8.84847164;stroke-linecap:butt;stroke-miterlimit:4;stroke-opacity:1;stroke-dasharray:none;stroke-dashoffset:0"
       sodipodi:type="star"
       transform="matrix(0.31169243,0,0,0.31169243,1475.6985,203.64127)" />
    <path
       d="m -238.60449,-128.10492 0,-56.3049 48.76147,-28.15245 48.76148,28.15245 0,56.3049 -48.76148,28.152451 z"
       inkscape:randomized="0"
       inkscape:rounded="0"
       inkscape:flatsided="true"
       sodipodi:arg2="3.1415927"
       sodipodi:arg1="2.6179939"
       sodipodi:r2="48.761475"
       sodipodi:r1="56.304901"
       sodipodi:cy="-156.25737"
       sodipodi:cx="-189.84302"
       sodipodi:sides="6"
       id="path3881-4-8-7"
       style="fill:none;stroke:#000000;stroke-width:8.84847164;stroke-linecap:butt;stroke-miterlimit:4;stroke-opacity:1;stroke-dasharray:none;stroke-dashoffset:0"
       sodipodi:type="star"
       transform="matrix(0.31169243,0,0,0.31169243,1457.667,233.70223)" />
    <path
       d="m -238.60449,-128.10492 0,-56.3049 48.76147,-28.15245 48.76148,28.15245 0,56.3049 -48.76148,28.152451 z"
       inkscape:randomized="0"
       inkscape:rounded="0"
       inkscape:flatsided="true"
       sodipodi:arg2="3.1415927"
       sodipodi:arg1="2.6179939"
       sodipodi:r2="48.761475"
       sodipodi:r1="56.304901"
       sodipodi:cy="-156.25737"
       sodipodi:cx="-189.84302"
       sodipodi:sides="6"
       id="path3881-7-4-5-9-8"
       style="fill:none;stroke:#000000;stroke-width:8.84847164;stroke-linecap:butt;stroke-miterlimit:4;stroke-opacity:1;stroke-dasharray:none;stroke-dashoffset:0"
       sodipodi:type="star"
       transform="matrix(0.31169243,0,0,0.31169243,1492.9707,233.70223)" />
    <path
       d="m -238.60449,-128.10492 0,-56.3049 48.76147,-28.15245 48.76148,28.15245 0,56.3049 -48.76148,28.152451 z"
       inkscape:randomized="0"
       inkscape:rounded="0"
       inkscape:flatsided="true"
       sodipodi:arg2="3.1415927"
       sodipodi:arg1="2.6179939"
       sodipodi:r2="48.761475"
       sodipodi:r1="56.304901"
       sodipodi:cy="-156.25737"
       sodipodi:cx="-189.84302"
       sodipodi:sides="6"
       id="path3881-4-87-9"
       style="fill:none;stroke:#000000;stroke-width:8.84847164;stroke-linecap:butt;stroke-miterlimit:4;stroke-opacity:1;stroke-dasharray:none;stroke-dashoffset:0"
       sodipodi:type="star"
       transform="matrix(0.31169243,0,0,0.31169243,1527.8337,172.78922)" />
    <path
       d="m -238.60449,-128.10492 0,-56.3049 48.76147,-28.15245 48.76148,28.15245 0,56.3049 -48.76148,28.152451 z"
       inkscape:randomized="0"
       inkscape:rounded="0"
       inkscape:flatsided="true"
       sodipodi:arg2="3.1415927"
       sodipodi:arg1="2.6179939"
       sodipodi:r2="48.761475"
       sodipodi:r1="56.304901"
       sodipodi:cy="-156.25737"
       sodipodi:cx="-189.84302"
       sodipodi:sides="6"
       id="path3881-7-4-5-42-1"
       style="fill:none;stroke:#000000;stroke-width:8.84847164;stroke-linecap:butt;stroke-miterlimit:4;stroke-opacity:1;stroke-dasharray:none;stroke-dashoffset:0"
       sodipodi:type="star"
       transform="matrix(0.31169243,0,0,0.31169243,1562.9679,172.78922)" />
    <path
       d="m -238.60449,-128.10492 0,-56.3049 48.76147,-28.15245 48.76148,28.15245 0,56.3049 -48.76148,28.152451 z"
       inkscape:randomized="0"
       inkscape:rounded="0"
       inkscape:flatsided="true"
       sodipodi:arg2="3.1415927"
       sodipodi:arg1="2.6179939"
       sodipodi:r2="48.761475"
       sodipodi:r1="56.304901"
       sodipodi:cy="-156.25737"
       sodipodi:cx="-189.84302"
       sodipodi:sides="6"
       id="path3881-4-1-3-9"
       style="fill:none;stroke:#000000;stroke-width:8.84847164;stroke-linecap:butt;stroke-miterlimit:4;stroke-opacity:1;stroke-dasharray:none;stroke-dashoffset:0"
       sodipodi:type="star"
       transform="matrix(0.31169243,0,0,0.31169243,1598.1021,172.78922)" />
    <path
       d="m -238.60449,-128.10492 0,-56.3049 48.76147,-28.15245 48.76148,28.15245 0,56.3049 -48.76148,28.152451 z"
       inkscape:randomized="0"
       inkscape:rounded="0"
       inkscape:flatsided="true"
       sodipodi:arg2="3.1415927"
       sodipodi:arg1="2.6179939"
       sodipodi:r2="48.761475"
       sodipodi:r1="56.304901"
       sodipodi:cy="-156.25737"
       sodipodi:cx="-189.84302"
       sodipodi:sides="6"
       id="path3881-7-4-5-4-1-8"
       style="fill:none;stroke:#000000;stroke-width:8.84847164;stroke-linecap:butt;stroke-miterlimit:4;stroke-opacity:1;stroke-dasharray:none;stroke-dashoffset:0"
       sodipodi:type="star"
       transform="matrix(0.31169243,0,0,0.31169243,1633.2363,172.78922)" />
    <path
       transform="matrix(0.31169243,0,0,0.31169243,1510.9933,203.64126)"
       d="m -238.60449,-128.10492 0,-56.3049 48.76147,-28.15245 48.76148,28.15245 0,56.3049 -48.76148,28.152451 z"
       inkscape:randomized="0"
       inkscape:rounded="0"
       inkscape:flatsided="true"
       sodipodi:arg2="3.1415927"
       sodipodi:arg1="2.6179939"
       sodipodi:r2="48.761475"
       sodipodi:r1="56.304901"
       sodipodi:cy="-156.25737"
       sodipodi:cx="-189.84302"
       sodipodi:sides="6"
       id="path3881-2-8-4"
       style="fill:none;stroke:#000000;stroke-width:8.84847164;stroke-linecap:butt;stroke-miterlimit:4;stroke-opacity:1;stroke-dasharray:none;stroke-dashoffset:0"
       sodipodi:type="star" />
    <path
       d="m -238.60449,-128.10492 0,-56.3049 48.76147,-28.15245 48.76148,28.15245 0,56.3049 -48.76148,28.152451 z"
       inkscape:randomized="0"
       inkscape:rounded="0"
       inkscape:flatsided="true"
       sodipodi:arg2="3.1415927"
       sodipodi:arg1="2.6179939"
       sodipodi:r2="48.761475"
       sodipodi:r1="56.304901"
       sodipodi:cy="-156.25737"
       sodipodi:cx="-189.84302"
       sodipodi:sides="6"
       id="path3881-7-4-2-6-0"
       style="fill:none;stroke:#000000;stroke-width:8.84847164;stroke-linecap:butt;stroke-miterlimit:4;stroke-opacity:1;stroke-dasharray:none;stroke-dashoffset:0"
       sodipodi:type="star"
       transform="matrix(0.31169243,0,0,0.31169243,1546.2881,203.64126)" />
    <path
       d="m -238.60449,-128.10492 0,-56.3049 48.76147,-28.15245 48.76148,28.15245 0,56.3049 -48.76148,28.152451 z"
       inkscape:randomized="0"
       inkscape:rounded="0"
       inkscape:flatsided="true"
       sodipodi:arg2="3.1415927"
       sodipodi:arg1="2.6179939"
       sodipodi:r2="48.761475"
       sodipodi:r1="56.304901"
       sodipodi:cy="-156.25737"
       sodipodi:cx="-189.84302"
       sodipodi:sides="6"
       id="path3881-4-16-5-7"
       style="fill:none;stroke:#000000;stroke-width:8.84847164;stroke-linecap:butt;stroke-miterlimit:4;stroke-opacity:1;stroke-dasharray:none;stroke-dashoffset:0"
       sodipodi:type="star"
       transform="matrix(0.31169243,0,0,0.31169243,1528.2744,233.70222)" />
    <path
       d="m -238.60449,-128.10492 0,-56.3049 48.76147,-28.15245 48.76148,28.15245 0,56.3049 -48.76148,28.152451 z"
       inkscape:randomized="0"
       inkscape:rounded="0"
       inkscape:flatsided="true"
       sodipodi:arg2="3.1415927"
       sodipodi:arg1="2.6179939"
       sodipodi:r2="48.761475"
       sodipodi:r1="56.304901"
       sodipodi:cy="-156.25737"
       sodipodi:cx="-189.84302"
       sodipodi:sides="6"
       id="path3881-7-4-5-8-0-6"
       style="fill:none;stroke:#000000;stroke-width:8.84847164;stroke-linecap:butt;stroke-miterlimit:4;stroke-opacity:1;stroke-dasharray:none;stroke-dashoffset:0"
       sodipodi:type="star"
       transform="matrix(0.31169243,0,0,0.31169243,1563.5781,233.70222)" />
    <path
       transform="matrix(0.31169243,0,0,0.31169243,1581.5829,203.64126)"
       d="m -238.60449,-128.10492 0,-56.3049 48.76147,-28.15245 48.76148,28.15245 0,56.3049 -48.76148,28.152451 z"
       inkscape:randomized="0"
       inkscape:rounded="0"
       inkscape:flatsided="true"
       sodipodi:arg2="3.1415927"
       sodipodi:arg1="2.6179939"
       sodipodi:r2="48.761475"
       sodipodi:r1="56.304901"
       sodipodi:cy="-156.25737"
       sodipodi:cx="-189.84302"
       sodipodi:sides="6"
       id="path3881-76-8-3"
       style="fill:none;stroke:#000000;stroke-width:8.84847164;stroke-linecap:butt;stroke-miterlimit:4;stroke-opacity:1;stroke-dasharray:none;stroke-dashoffset:0"
       sodipodi:type="star" />
    <path
       d="m -238.60449,-128.10492 0,-56.3049 48.76147,-28.15245 48.76148,28.15245 0,56.3049 -48.76148,28.152451 z"
       inkscape:randomized="0"
       inkscape:rounded="0"
       inkscape:flatsided="true"
       sodipodi:arg2="3.1415927"
       sodipodi:arg1="2.6179939"
       sodipodi:r2="48.761475"
       sodipodi:r1="56.304901"
       sodipodi:cy="-156.25737"
       sodipodi:cx="-189.84302"
       sodipodi:sides="6"
       id="path3881-7-4-1-6-61"
       style="fill:none;stroke:#000000;stroke-width:8.84847164;stroke-linecap:butt;stroke-miterlimit:4;stroke-opacity:1;stroke-dasharray:none;stroke-dashoffset:0"
       sodipodi:type="star"
       transform="matrix(0.31169243,0,0,0.31169243,1616.8778,203.64126)" />
    <path
       d="m -238.60449,-128.10492 0,-56.3049 48.76147,-28.15245 48.76148,28.15245 0,56.3049 -48.76148,28.152451 z"
       inkscape:randomized="0"
       inkscape:rounded="0"
       inkscape:flatsided="true"
       sodipodi:arg2="3.1415927"
       sodipodi:arg1="2.6179939"
       sodipodi:r2="48.761475"
       sodipodi:r1="56.304901"
       sodipodi:cy="-156.25737"
       sodipodi:cx="-189.84302"
       sodipodi:sides="6"
       id="path3881-4-8-0-5"
       style="fill:none;stroke:#000000;stroke-width:8.84847164;stroke-linecap:butt;stroke-miterlimit:4;stroke-opacity:1;stroke-dasharray:none;stroke-dashoffset:0"
       sodipodi:type="star"
       transform="matrix(0.31169243,0,0,0.31169243,1598.8819,233.70222)" />
    <path
       d="m -238.60449,-128.10492 0,-56.3049 48.76147,-28.15245 48.76148,28.15245 0,56.3049 -48.76148,28.152451 z"
       inkscape:randomized="0"
       inkscape:rounded="0"
       inkscape:flatsided="true"
       sodipodi:arg2="3.1415927"
       sodipodi:arg1="2.6179939"
       sodipodi:r2="48.761475"
       sodipodi:r1="56.304901"
       sodipodi:cy="-156.25737"
       sodipodi:cx="-189.84302"
       sodipodi:sides="6"
       id="path3881-7-4-5-9-2-4"
       style="fill:none;stroke:#000000;stroke-width:8.84847164;stroke-linecap:butt;stroke-miterlimit:4;stroke-opacity:1;stroke-dasharray:none;stroke-dashoffset:0"
       sodipodi:type="star"
       transform="matrix(0.31169243,0,0,0.31169243,1634.1856,233.70222)" />
    <path
       d="m -238.60449,-128.10492 0,-56.3049 48.76147,-28.15245 48.76148,28.15245 0,56.3049 -48.76148,28.152451 z"
       inkscape:randomized="0"
       inkscape:rounded="0"
       inkscape:flatsided="true"
       sodipodi:arg2="3.1415927"
       sodipodi:arg1="2.6179939"
       sodipodi:r2="48.761475"
       sodipodi:r1="56.304901"
       sodipodi:cy="-156.25737"
       sodipodi:cx="-189.84302"
       sodipodi:sides="6"
       id="path3881-7-4-1-6-6-6"
       style="fill:none;stroke:#000000;stroke-width:8.84847164;stroke-linecap:butt;stroke-miterlimit:4;stroke-opacity:1;stroke-dasharray:none;stroke-dashoffset:0"
       sodipodi:type="star"
       transform="matrix(0.31169243,0,0,0.31169243,1652.1725,204.02936)" />
  </g>
</svg>
